<?xml version="1.0" encoding="UTF-8" standalone="no"?>
<!-- Created with Inkscape (http://www.inkscape.org/) -->

<svg
   xmlns:dc="http://purl.org/dc/elements/1.1/"
   xmlns:cc="http://creativecommons.org/ns#"
   xmlns:rdf="http://www.w3.org/1999/02/22-rdf-syntax-ns#"
   xmlns:svg="http://www.w3.org/2000/svg"
   xmlns="http://www.w3.org/2000/svg"
   xmlns:sodipodi="http://sodipodi.sourceforge.net/DTD/sodipodi-0.dtd"
   xmlns:inkscape="http://www.inkscape.org/namespaces/inkscape"
   width="210mm"
   height="297mm"
   viewBox="0 0 210 297"
   version="1.1"
   id="svg8"
   inkscape:version="0.92.5 (2060ec1f9f, 2020-04-08)"
   sodipodi:docname="ukin.svg"
   inkscape:export-filename="/home/ryos/docs/CQ/IF-2022-06/images/ukin.png"
   inkscape:export-xdpi="96"
   inkscape:export-ydpi="96">
  <defs
     id="defs2" />
  <sodipodi:namedview
     id="base"
     pagecolor="#ffffff"
     bordercolor="#666666"
     borderopacity="1.0"
     inkscape:pageopacity="0.0"
     inkscape:pageshadow="2"
     inkscape:zoom="0.98994949"
     inkscape:cx="165.24331"
     inkscape:cy="681.5004"
     inkscape:document-units="mm"
     inkscape:current-layer="layer1"
     showgrid="false"
     inkscape:window-width="1560"
     inkscape:window-height="829"
     inkscape:window-x="707"
     inkscape:window-y="381"
     inkscape:window-maximized="0" />
  <metadata
     id="metadata5">
    <rdf:RDF>
      <cc:Work
         rdf:about="">
        <dc:format>image/svg+xml</dc:format>
        <dc:type
           rdf:resource="http://purl.org/dc/dcmitype/StillImage" />
        <dc:title />
      </cc:Work>
    </rdf:RDF>
  </metadata>
  <g
     inkscape:label="レイヤー 1"
     inkscape:groupmode="layer"
     id="layer1">
    <ellipse
       style="fill:#e3c0a9;fill-opacity:1;stroke:none;stroke-width:0.30742261;stroke-opacity:1"
       id="path853"
       cx="104.13245"
       cy="137.11609"
       rx="17.197916"
       ry="13.985117" />
    <path
       style="fill:#00ed00;fill-opacity:1;stroke:none;stroke-width:0.26458332px;stroke-linecap:butt;stroke-linejoin:miter;stroke-opacity:1"
       d="m 80.237258,84.530132 c 1.14574,-0.956752 3.429756,-1.252527 6.697265,-2.126115 1.730683,-1.092458 6.561622,-2.648558 10.110863,-1.511904 l 2.693084,1.086682 c 2.37883,-0.300657 3.62257,0.07262 5.1337,0.782231 1.76598,0.906426 4.47924,3.116064 6.6308,5.029148 4.54168,4.624856 7.38813,9.491887 10.20536,14.363096 3.29,8.0417 6.32824,16.26651 13.41816,21.54464 1.07895,0.13374 30.43145,18.96225 27.02529,23.24554 -0.13381,3.20453 -28.99671,-4.60281 -30.99404,-6.61458 -5.79282,-3.40816 -9.49843,-6.3525 -18.14286,-10.39435 l -20.539627,12.04915 c 0.07308,2.96479 -3.750193,6.5448 2.39677,8.55056 0.518368,3.57008 1.121754,7.20391 -1.13393,8.69345 l -18.142855,4.91369 c 1.449898,-2.3264 3.041832,-4.39161 4.724702,-5.29167 -4.045119,-9.24071 -1.386098,-7.30785 -2.078868,-10.96131 1.328055,-3.79262 0.933836,-7.96796 -0.944941,-12.47321 -4.728343,-13.28393 -3.905755,-19.90675 -5.858632,-29.86012 -0.299235,-3.61746 -0.228635,-6.681664 0.974583,-10.733186 0.900584,-3.668423 1.643843,-4.893981 2.952833,-6.150744 0.661458,-1.448097 3.589118,-3.5474 4.872343,-4.140998 z"
       id="path828"
       inkscape:connector-curvature="0"
       sodipodi:nodetypes="cccccccccccccccccccccc" />
    <path
       style="fill:#fad3c4;fill-opacity:1;stroke:none;stroke-width:0.26458332px;stroke-linecap:butt;stroke-linejoin:miter;stroke-opacity:1"
       d="m 92.475253,88.797036 c -7.663245,-2.212767 -10.924618,1.932392 -15.058807,7.483547 -7.225761,9.293457 -1.480135,25.914487 2.437851,30.860137 2.824431,4.11197 5.018212,8.19544 9.563569,10.94896 2.04351,1.54012 10.450224,3.13875 16.153594,1.35494 4.59273,-2.54698 6.71876,-6.09089 8.15172,-11.75986 1.39269,-5.37551 0.0795,-5.68599 0.40091,-12.16077 8.14255,-3.30027 5.07812,-9.88897 5.07812,-9.88897 0,0 -3.34087,0.4798 -5.61266,3.07359 -1.76836,-13.905806 -4.68278,-12.032793 -6.68174,-15.100721 -5.09094,-2.864003 -9.844193,-4.208429 -14.432557,-4.810853 z"
       id="path826"
       inkscape:connector-curvature="0"
       sodipodi:nodetypes="ccccccccccc" />
    <path
       style="fill:#000000;fill-opacity:1;stroke:#000000;stroke-width:0.26458332px;stroke-linecap:butt;stroke-linejoin:miter;stroke-opacity:1"
       d="m 84.146947,110.79948 c -0.765973,0.47891 -1.639009,0.69017 -2.173361,1.74814 -0.193512,0.3892 -0.3569,0.80852 -0.425223,1.32291 -0.0787,0.68501 0.343777,0.61827 0.755952,0.56697 0.327034,-0.72413 0.807205,-1.24408 1.511903,-1.46466 1.273559,-0.5109 1.832458,-0.16421 2.504093,0.0472 0.402914,0.1798 0.940132,0.22529 1.464657,0.28348 1.403875,-0.75508 1.022111,-1.23545 0.850448,-1.74814 -1.183374,-0.31773 -2.627312,-1.1974 -3.354539,-0.94495 z"
       id="path841"
       inkscape:connector-curvature="0"
       sodipodi:nodetypes="cccccccccc" />
    <path
       style="fill:#000000;fill-opacity:1;stroke:#000000;stroke-width:0.26458332px;stroke-linecap:butt;stroke-linejoin:miter;stroke-opacity:1"
       d="m 103.52634,109.40164 c -0.71428,-0.11959 -1.36434,-0.0776 -2.16764,0.0725 l -1.384,0.71108 -0.878123,0.32737 c -0.471209,-0.57744 -1.556026,-0.14252 0.767417,-2.28883 0.643176,-0.54281 1.425766,-0.83222 2.851036,-1.15685 1.30133,-0.006 2.44396,0.25246 3.2128,1.13393 -0.0692,0.45358 0.16417,0.9504 -0.47247,1.32292 -0.9739,0.0622 -1.75628,0.0827 -1.92902,-0.12216 z"
       id="path847"
       inkscape:connector-curvature="0"
       sodipodi:nodetypes="cccccccccc" />
    <path
       style="fill:none;stroke:#000000;stroke-width:0.26458332px;stroke-linecap:butt;stroke-linejoin:miter;stroke-opacity:1"
       d="m 77.485117,109.52381 c 2.204059,-1.51221 1.870446,-3.97604 9.638393,-3.40179 v 0"
       id="path849"
       inkscape:connector-curvature="0"
       sodipodi:nodetypes="ccc" />
    <path
       style="fill:none;stroke:#000000;stroke-width:0.26458332px;stroke-linecap:butt;stroke-linejoin:miter;stroke-opacity:1"
       d="m 96.572915,105.55506 c 2.848732,-3.19077 7.167685,-4.05369 13.040175,-2.45685"
       id="path851"
       inkscape:connector-curvature="0"
       sodipodi:nodetypes="cc" />
    <path
       style="fill:none;stroke:#ac0000;stroke-width:0.665;stroke-linecap:butt;stroke-linejoin:miter;stroke-opacity:1;stroke-miterlimit:4;stroke-dasharray:none"
       d="m 93.17796,132.43239 c 4.456503,1.05398 8.27182,0.35294 10.85999,-3.44281"
       id="path855"
       inkscape:connector-curvature="0"
       sodipodi:nodetypes="cc" />
    <path
       style="fill:none;stroke:#00ed00;stroke-width:0.26458332px;stroke-linecap:butt;stroke-linejoin:miter;stroke-opacity:1"
       d="m 75.651934,98.893224 c -0.0083,4.762726 -0.68727,7.513576 -1.700892,9.260406 l -0.812649,1.18118"
       id="path857"
       inkscape:connector-curvature="0"
       sodipodi:nodetypes="ccc" />
    <path
       style="fill:none;stroke:#00ed00;stroke-width:0.30083242px;stroke-linecap:butt;stroke-linejoin:miter;stroke-opacity:1"
       d="m 76.106263,97.25775 c -0.0082,6.21137 -0.681273,9.79891 -1.68605,12.07706 v 0"
       id="path857-3"
       inkscape:connector-curvature="0"
       sodipodi:nodetypes="ccc" />
    <path
       style="fill:none;stroke:#00ed00;stroke-width:0.30083245px;stroke-linecap:butt;stroke-linejoin:miter;stroke-opacity:1"
       d="m 76.436992,96.520696 c 0.735476,2.957791 -0.633966,12.481954 -1.832915,15.609604 v 0"
       id="path857-3-6"
       inkscape:connector-curvature="0"
       sodipodi:nodetypes="ccc" />
  </g>
</svg>
