<?xml version="1.0" encoding="UTF-8" standalone="no"?>
<!-- Created with Inkscape (http://www.inkscape.org/) -->

<svg
   xmlns:dc="http://purl.org/dc/elements/1.1/"
   xmlns:cc="http://creativecommons.org/ns#"
   xmlns:rdf="http://www.w3.org/1999/02/22-rdf-syntax-ns#"
   xmlns:svg="http://www.w3.org/2000/svg"
   xmlns="http://www.w3.org/2000/svg"
   xmlns:sodipodi="http://sodipodi.sourceforge.net/DTD/sodipodi-0.dtd"
   xmlns:inkscape="http://www.inkscape.org/namespaces/inkscape"
   width="210mm"
   height="297mm"
   viewBox="0 0 210 297"
   version="1.1"
   id="svg986"
   inkscape:version="0.92.5 (2060ec1f9f, 2020-04-08)"
   sodipodi:docname="suetomi.svg">
  <defs
     id="defs980" />
  <sodipodi:namedview
     id="base"
     pagecolor="#ffffff"
     bordercolor="#666666"
     borderopacity="1.0"
     inkscape:pageopacity="0.0"
     inkscape:pageshadow="2"
     inkscape:zoom="0.49497475"
     inkscape:cx="-26.895422"
     inkscape:cy="898.96896"
     inkscape:document-units="mm"
     inkscape:current-layer="layer1"
     showgrid="false"
     inkscape:window-width="1375"
     inkscape:window-height="857"
     inkscape:window-x="455"
     inkscape:window-y="476"
     inkscape:window-maximized="0" />
  <metadata
     id="metadata983">
    <rdf:RDF>
      <cc:Work
         rdf:about="">
        <dc:format>image/svg+xml</dc:format>
        <dc:type
           rdf:resource="http://purl.org/dc/dcmitype/StillImage" />
        <dc:title></dc:title>
      </cc:Work>
    </rdf:RDF>
  </metadata>
  <g
     inkscape:label="レイヤー 1"
     inkscape:groupmode="layer"
     id="layer1">
    <path
       style="fill:#ebbc9c;stroke:none;stroke-width:0.26458332px;stroke-linecap:butt;stroke-linejoin:miter;stroke-opacity:1;fill-opacity:1"
       d="m 54.255714,155.07988 17.639787,8.55262 29.934189,1.60362 31.27053,-7.48355 20.57976,-52.11755 L 99.958802,42.29214 59.868373,57.259233 40.090428,106.70409 Z"
       id="path1575"
       inkscape:connector-curvature="0"
       inkscape:export-xdpi="96"
       inkscape:export-ydpi="96" />
    <path
       style="fill:#a900d5;fill-opacity:1;stroke:none;stroke-width:0.26458332px;stroke-linecap:butt;stroke-linejoin:miter;stroke-opacity:1"
       d="m 108.58987,32.60009 c 23.88846,3.040001 37.83987,24.597363 44.11251,41.393956 12.89645,30.403474 5.7518,58.321714 -7.16256,80.841044 -6.34979,9.40131 -26.83542,8.95143 -5.68863,29.528 l -15.875,-3.02381 c -12.42941,-14.27847 -7.23695,-21.96434 0.84767,-29.16901 5.80446,-8.85614 7.15282,-16.85993 11.43655,-26.39348 4.83234,-8.41579 5.85869,-15.59109 6.04762,-26.458338 C 136.59382,89.324367 129.25321,80.426965 116.41667,73.994046 107.77302,68.626189 97.928539,59.91935 86.537553,51.804158 74.536902,58.306956 64.901634,70.46137 59.544681,78.308348 c -9.277558,19.125145 -12.103796,38.930812 -8.94173,51.137492 -0.39461,10.1274 3.1683,18.74466 12.897048,31.48273 -3.611583,17.30424 -8.702183,24.25536 -15.875,16.63095 C 37.033155,169.32336 29.085501,164.04029 33.712598,116.37324 36.169443,102.7661 38.931547,73.427084 49.892857,54.339286 62.073824,40.044774 72.243356,27.562164 108.58987,32.60009 Z"
       id="path1542"
       inkscape:connector-curvature="0"
       sodipodi:nodetypes="ccccccccccccccccc"
       inkscape:export-xdpi="96"
       inkscape:export-ydpi="96" />
    <path
       style="fill:#50332a;stroke:none;stroke-width:0.26458332px;stroke-linecap:butt;stroke-linejoin:miter;stroke-opacity:1;fill-opacity:1"
       d="m 65.795551,86.091916 c 2.982021,0.287176 6.528089,0.597692 9.386857,1.870887 6.464372,1.84699 9.238423,-0.799716 1.523945,-2.907539 -3.02092,-0.850229 -5.922307,-1.102789 -8.819893,-1.336349 -8.48984,0.43997 -7.545313,1.304912 -2.090909,2.373001 z"
       id="path1544"
       inkscape:connector-curvature="0"
       sodipodi:nodetypes="ccccc"
       inkscape:export-xdpi="96"
       inkscape:export-ydpi="96" />
    <path
       style="fill:#50332a;stroke:none;stroke-width:0.26458332px;stroke-linecap:butt;stroke-linejoin:miter;stroke-opacity:1;fill-opacity:1"
       d="m 106.92124,92.483457 c 4.47677,-0.144953 7.03581,-0.40906 10.24304,-0.378958 7.29664,0.638619 2.41436,-0.935478 0.43431,-2.505654 -4.24731,-2.262582 -9.49622,-1.014185 -11.10118,-0.596608 -2.82822,1.01795 -6.22233,3.175968 0.42383,3.48122 z"
       id="path1546"
       inkscape:connector-curvature="0"
       sodipodi:nodetypes="ccccc"
       inkscape:export-xdpi="96"
       inkscape:export-ydpi="96" />
    <path
       style="fill:#b28e79;fill-opacity:0.37685463;stroke:none;stroke-width:0.26458332px;stroke-linecap:butt;stroke-linejoin:miter;stroke-opacity:1"
       d="m 108.21076,106.83773 c 3.54132,1.03567 9.6551,0.93544 9.6551,0.93544 3.92866,-0.0826 2.22114,-3.42943 1.06908,-4.54358 -4.06226,-2.60904 -8.38444,-2.2418 -10.98167,-1.61243 -3.90966,1.00029 -5.4473,2.88904 0.25749,5.22057 z"
       id="path1548"
       inkscape:connector-curvature="0"
       sodipodi:nodetypes="ccccc"
       inkscape:export-xdpi="96"
       inkscape:export-ydpi="96" />
    <path
       style="fill:#d6aa8e;fill-opacity:1;stroke:none;stroke-width:0.26458332px;stroke-linecap:butt;stroke-linejoin:miter;stroke-opacity:1"
       d="m 66.310519,102.22971 c 3.331448,1.40376 3.743054,1.15256 7.5814,1.20369 4.730902,0.15308 4.917622,-2.51771 2.710442,-4.704892 -2.006353,-1.524486 -7.556277,-2.525042 -11.041656,-1.162182 -1.45848,0.845636 -5.162732,2.968454 0.749817,4.663384 z"
       id="path1550"
       inkscape:connector-curvature="0"
       sodipodi:nodetypes="cccccc"
       inkscape:export-xdpi="96"
       inkscape:export-ydpi="96" />
    <path
       style="fill:none;stroke:#d10000;stroke-width:1.765;stroke-linecap:butt;stroke-linejoin:miter;stroke-opacity:1;stroke-miterlimit:4;stroke-dasharray:none"
       d="m 69.222807,140.11279 c 7.848778,4.44116 18.173893,6.16345 35.947753,2.80633 l 1.80406,-0.33409"
       id="path1552"
       inkscape:connector-curvature="0"
       sodipodi:nodetypes="ccc"
       inkscape:export-xdpi="96"
       inkscape:export-ydpi="96" />
    <ellipse
       style="fill:#6f5346;fill-opacity:1;stroke:none;stroke-width:1.76499999;stroke-miterlimit:4;stroke-dasharray:none;stroke-opacity:1"
       id="path1558"
       cx="70.965027"
       cy="100.16889"
       rx="2.7403271"
       ry="2.9293153"
       inkscape:export-xdpi="96"
       inkscape:export-ydpi="96" />
    <ellipse
       style="fill:#6f5346;fill-opacity:1;stroke:none;stroke-width:1.76499999;stroke-miterlimit:4;stroke-dasharray:none;stroke-opacity:1"
       id="path1558-7"
       cx="112.01459"
       cy="104.45356"
       rx="2.7403274"
       ry="2.9293153"
       inkscape:export-xdpi="96"
       inkscape:export-ydpi="96" />
  </g>
</svg>
